<svg xmlns="http://www.w3.org/2000/svg" width="265" height="45" viewBox="0 0 265 45"><g fill="#FFF"><path d="M34.7569922 20.4872713C35.6114022 20.4872713 36.3043257 19.7948466 36.3043257 18.9405347 36.3043257 18.0870616 35.6114022 17.3946369 34.7569922 17.3946369L34.7486033 17.3950564 34.7439894 17.3946369 10.155272 17.3946369C9.30128154 17.3946369 8.60835804 18.0870616 8.60835804 18.9405347 8.60835804 19.7948466 9.30128154 20.4872713 10.155272 20.4872713L10.155272 20.4889489 34.7439894 20.4889489 34.7439894 20.4872713 34.7569922 20.4872713zM34.7569922 33.7725137C35.6114022 33.7725137 36.3043257 33.0796697 36.3043257 32.2257772 36.3043257 31.3710459 35.6114022 30.6794601 34.7569922 30.6794601L34.7486033 30.6794601 34.7439894 30.6794601 10.155272 30.6794601C9.30128154 30.6794601 8.60835804 31.3710459 8.60835804 32.2257772 8.60835804 33.0796697 9.30128154 33.7725137 10.155272 33.7725137L10.155272 33.773772 34.7439894 33.773772 34.7439894 33.7716749 34.7569922 33.7725137zM21.6027708 24.0366291L21.5893486 24.0378873 21.5893486 24.0366291 10.155272 24.0366291C9.30128154 24.0366291 8.60835804 24.7298925 8.60835804 25.583785 8.60835804 26.4385163 9.30128154 27.1296828 10.155272 27.1296828L10.155272 27.1317798 21.5893486 27.1317798 21.5893486 27.1296828 21.5985763 27.1296828C22.4576001 27.1296828 23.1501042 26.4385163 23.1501042 25.583785 23.1501042 24.7298925 22.4576001 24.0366291 21.6027708 24.0366291zM10.155272 10.751806C9.30128154 10.751806 8.60835804 11.4450695 8.60835804 12.2998008 8.60835804 13.1536933 9.30128154 13.846118 10.155272 13.846118L10.155272 13.8469568 21.5893486 13.8469568 21.5893486 13.8448598 21.5985763 13.846118C22.4576001 13.846118 23.1501042 13.1536933 23.1501042 12.2998008 23.1501042 11.4450695 22.4576001 10.751806 21.6027708 10.751806L21.5893486 10.7530642 21.5893486 10.751806 10.155272 10.751806zM26.1344569 10.751806C25.2804664 10.751806 24.587543 11.4450695 24.587543 12.2998008 24.587543 13.1536933 25.2804664 13.846118 26.1344569 13.846118L26.1344569 13.8469568 31.8586257 13.8469568 31.8586257 13.8448598 31.8665952 13.846118C32.7260384 13.846118 33.4185425 13.1536933 33.4185425 12.2998008 33.4185425 11.4450695 32.7260384 10.751806 31.8707897 10.751806L31.8586257 10.7530642 31.8586257 10.751806 26.1344569 10.751806zM22.4559224.0706002621C34.8580785.0706002621 44.9121803 10.1235491 44.9121803 22.5234443 44.9121803 34.9241782 34.8580785 44.9771271 22.4559224 44.9771271 10.0546051 44.9771271.0000838890431 34.9241782.0000838890431 22.5234443.0000838890431 10.1235491 10.0546051.0706002621 22.4559224.0706002621zM71.3146628 33.2477641C70.2052302 33.5694417 68.7749219 33.8680524 67.0241576 34.145274 65.2725544 34.4224954 63.4332871 34.5613159 61.5059363 34.5613159 59.5509022 34.5613159 57.9230353 34.2979345 56.6252718 33.7728492 55.3254111 33.2477641 54.2969314 32.5104639 53.5377356 31.5617877 52.7789592 30.6143696 52.2391332 29.4824168 51.9178382 28.1692844 51.5965432 26.856152 51.4363151 25.4113289 51.4363151 23.8348152L51.4363151 11.0075544 57.9599465 11.0075544 57.9599465 23.0471874C57.9599465 25.148367 58.2371998 26.6661651 58.7925452 27.6001625 59.3457935 28.5345793 60.383501 29.0009489 61.9014732 29.0009489 62.3674768 29.0009489 62.8640999 28.9791403 63.3900843 28.9351035 63.9148103 28.8919057 64.3816527 28.8407391 64.7906119 28.7820236L64.7906119 11.0075544 71.3146628 11.0075544 71.3146628 33.2477641zM92.1878086 22.3458716C92.1878086 18.1435125 90.6404751 16.0419136 87.5466472 16.0419136 86.874696 16.0419136 86.2107142 16.1295675 85.553863 16.3044562 84.8974313 16.4797642 84.3651553 16.69827 83.9566156 16.9608126L83.9566156 28.825557C84.2770718 28.8851115 84.685192 28.9350197 85.1818151 28.9790564 85.6780188 29.0230931 86.2182643 29.0449018 86.8017125 29.0449018 88.5822575 29.0449018 89.9257405 28.4317432 90.8304838 27.2058454 91.7339689 25.980367 92.1878086 24.3606554 92.1878086 22.3458716M98.8423069 22.5211796C98.8423069 24.3606554 98.5730231 26.0239843 98.0331971 27.5120053 97.4929516 29.000865 96.7115252 30.2707995 95.6905955 31.3213893 94.6684075 32.3715597 93.413847 33.1822543 91.9252359 33.7513762 90.4362054 34.3204981 88.742905 34.60443 86.8461737 34.60443 86.0576167 34.60443 85.232568 34.567523 84.371447 34.4958061 83.5111648 34.4224116 82.6647244 34.3272084 81.8325451 34.210616 81.0003658 34.094443 80.2050976 33.956042 79.4459018 33.7945741 78.6875449 33.6347838 78.0155936 33.4666056 77.4321453 33.2912976L77.4321453 1.11305378 83.9566156.0620446108 83.9566156 11.5325557C84.685192 11.211717 85.4452267 10.9630145 86.2329448 10.7877065 87.0215018 10.6128178 87.8675228 10.5251639 88.7722662 10.5251639 90.4072637 10.5251639 91.8518329 10.8103539 93.1072325 11.3794758 94.3622126 11.9485977 95.4129228 12.7584535 96.2593633 13.8094627 97.1058037 14.8596331 97.7483938 16.1224378 98.1854557 17.5961992 98.623776 19.0699607 98.8423069 20.7119004 98.8423069 22.5211796"></path><polygon points="103.952 34.036 110.476 34.036 110.476 11.008 103.952 11.008"></polygon><path d="M122.283002 22.6964875C122.283002 26.8703276 123.829917 28.9576671 126.923744 28.9576671 127.594438 28.9576671 128.259258 28.8695937 128.916109 28.6942857 129.572961 28.5198165 130.104818 28.3004718 130.514196 28.0379292L130.514196 16.2604194C130.192481 16.202962 129.783942 16.1509568 129.287319 16.1077588 128.791534 16.0637222 128.251708 16.0419135 127.66826 16.0419135 125.887296 16.0419135 124.544652 16.6479423 123.639489 17.8587418 122.734745 19.0699607 122.283002 20.6821232 122.283002 22.6964875M115.627665 22.5211795C115.627665 20.7416776 115.89695 19.1139973 116.437614 17.6393972 116.977021 16.1664745 117.758027 14.8969594 118.779377 13.8308519 119.801146 12.7660026 121.056545 11.9414678 122.545575 11.3572477 124.034187 10.7738663 125.726648 10.4815465 127.623799 10.4815465 128.412356 10.4815465 129.236985 10.5184535 130.098106 10.5914286 130.959227 10.6644036 131.806087 10.7596068 132.638685 10.8757798 133.470026 10.9927916 134.264456 11.1316121 135.02449 11.2918217 135.782847 11.4524509 136.453959 11.6202097 137.038247 11.7950983L137.038247 43.8630407 130.514196 44.9853473 130.514196 33.4666055C129.783942 33.7882831 129.025584 34.035308 128.237027 34.210616 127.449309 34.385924 126.602449 34.4731586 125.697706 34.4731586 122.428131 34.4731586 119.932432 33.4007601 118.210609 31.2559633 116.487948 29.1103277 115.627665 26.1988729 115.627665 22.5211795M163.082649 33.2477641C161.972796 33.5694417 160.542907 33.8680524 158.791724 34.145274 157.04054 34.4224954 155.201273 34.5613159 153.274761 34.5613159 151.318469 34.5613159 149.691441 34.2979345 148.392838 33.7728492 147.093397 33.2477641 146.064917 32.5104639 145.305721 31.5617877 144.546945 30.6143696 144.0067 29.4824168 143.686243 28.1692844 143.364529 26.856152 143.204721 25.4113289 143.204721 23.8348152L143.204721 11.0075544 149.727932 11.0075544 149.727932 23.0471874C149.727932 25.148367 150.005186 26.6661651 150.560531 27.6001625 151.114199 28.5345793 152.151487 29.0009489 153.669459 29.0009489 154.135882 29.0009489 154.632086 28.9791403 155.15807 28.9351035 155.682796 28.8919057 156.149638 28.8407391 156.558598 28.7820236L156.558598 11.0075544 163.082649 11.0075544 163.082649 33.2477641zM181.902819 21.8208283C181.902819 19.7192294 181.631859 18.230789 181.092452 17.3555072 180.551787 16.479806 179.625652 16.0419555 178.31153 16.0419555 177.902991 16.0419555 177.480609 16.0637641 177.042289 16.1078007 176.604388 16.1505793 176.181168 16.2030039 175.772628 16.2604613L175.772628 34.0353499 169.248997 34.0353499 169.248997 11.7951403C169.802664 11.6496094 170.453224 11.4961101 171.197739 11.335481 171.941835 11.1756906 172.730392 11.0293211 173.561733 10.8976304 174.393492 10.7667785 175.247482 10.6644456 176.123284 10.5914705 176.999086 10.5184954 177.859368 10.4815885 178.707067 10.4815885 180.370587 10.4815885 181.719522 10.6938034 182.75681 11.1165557 183.79242 11.5397274 184.646411 12.0438427 185.317943 12.6272241 186.251627 11.9561887 187.324988 11.4306841 188.535926 11.0502909 189.747284 10.6719948 190.863008 10.4815885 191.886035 10.4815885 193.724883 10.4815885 195.234886 10.7378401 196.416883 11.2482464 197.599299 11.7586527 198.541372 12.4808546 199.241846 13.4148519 199.942319 14.3496881 200.423423 15.4581547 200.686415 16.7423486 200.948988 18.026962 201.080274 19.4566868 201.080274 21.0327812L201.080274 34.0353499 194.557063 34.0353499 194.557063 21.8208283C194.557063 19.7192294 194.286521 18.230789 193.747114 17.3555072 193.206449 16.479806 192.279894 16.0419555 190.966192 16.0419555 190.615956 16.0419555 190.126883 16.1296094 189.499392 16.304498 189.096305 16.4168964 188.426871 16.6953762 188.426871 16.6953762L188.426871 21.4706318 188.426871 34.0353499 181.902819 34.0353499 181.902819 21.8208283zM210.599583 32.9028939C210.977085 32.9028939 211.308027 32.8907314 211.590732 32.8659869 211.874277 32.8412424 212.1142 32.8085295 212.313437 32.7691062L212.313437 30.0572844C212.203962 30.0077956 212.030731 29.9553709 211.792067 29.9008492 211.553821 29.8463277 211.225396 29.8186475 210.808887 29.8186475 210.570642 29.8186475 210.321491 29.8358427 210.063532 29.8710721 209.804735 29.9058821 209.566071 29.9801154 209.347959 30.0941914 209.129428 30.2086868 208.950325 30.3651219 208.811489 30.5634967 208.671394 30.7622909 208.602605 31.025253 208.602605 31.3536409 208.602605 31.6413474 208.650002 31.885017 208.744377 32.0833919 208.839172 32.2826055 208.972975 32.4411376 209.146625 32.5602464 209.320695 32.6797745 209.529579 32.7670091 209.772437 32.8215308 210.015716 32.8760524 210.291711 32.9028939 210.599583 32.9028939M210.510661 25.7207183C211.016932 25.7207183 211.447283 25.793274 211.799197 25.9371272 212.15237 26.0805609 212.438012 26.2797746 212.656124 26.532671 212.875073 26.7859869 213.034463 27.0871141 213.133452 27.4347942 213.232022 27.7824745 213.282355 28.1590931 213.282355 28.5671664L213.282355 33.4246239C213.182946 33.4548204 213.039077 33.4866946 212.850327 33.521924 212.661577 33.5567339 212.443046 33.5932215 212.194733 33.6330643 211.946003 33.6733264 211.670427 33.7052005 211.366748 33.7303643 211.064329 33.7546894 210.75352 33.7676907 210.435161 33.7676907 210.028299 33.7676907 209.653734 33.7228152 209.311048 33.6330643 208.967941 33.5437326 208.669297 33.4023958 208.415951 33.2090538 208.163027 33.0148728 207.965048 32.7670091 207.820759 32.4637851 207.676051 32.1605609 207.604325 31.7910721 207.604325 31.3536409 207.604325 30.9363408 207.68402 30.5785951 207.843409 30.2804036 208.00154 29.9822123 208.225104 29.7364456 208.513263 29.5431036 208.801842 29.3489227 209.144108 29.2075858 209.542162 29.1182542 209.939377 29.0289227 210.370986 28.9840472 210.837829 28.9840472 210.977085 28.9840472 211.12389 28.9915964 211.277826 29.0062752 211.430924 29.0217929 211.581086 29.0410852 211.724535 29.0666685 211.868406 29.090574 211.992981 29.1161573 212.097422 29.1404823 212.201445 29.1656461 212.273589 29.1878742 212.313437 29.2075858L212.313437 28.7307314C212.313437 28.4623171 212.294143 28.2018716 212.253876 27.9485557 212.214448 27.6952399 212.127203 27.4666685 211.992981 27.2632608 211.859178 27.0594338 211.670427 26.895869 211.42715 26.7713079 211.183871 26.6471665 210.863415 26.5850957 210.4662 26.5850957 209.89953 26.5850957 209.477149 26.624519 209.199056 26.7046239 208.920125 26.7838899 208.717533 26.8484771 208.587924 26.8979659L208.454121 26.0486868C208.622319 25.9694207 208.883633 25.8943487 209.236387 25.8251481 209.588721 25.7555282 210.013618 25.7207183 210.510661 25.7207183M218.834048 33.767481C218.238437 33.767481 217.711193 33.6731166 217.254418 33.484388 216.797642 33.2952398 216.417205 33.0251481 216.113946 32.6720158 215.811526 32.3193028 215.579992 31.8973893 215.421442 31.4054364 215.262472 30.913903 215.183616 30.3699449 215.183616 29.7739816 215.183616 29.1683723 215.264989 28.616865 215.428573 28.11946 215.592157 27.6233132 215.828724 27.1959475 216.136596 26.8386212 216.444888 26.4808755 216.817355 26.2053316 217.254418 26.0111507 217.69148 25.8178087 218.18307 25.7205085 218.730025 25.7205085 219.146955 25.7205085 219.537458 25.7553185 219.899439 25.8253578 220.262678 25.8945583 220.542029 25.9834705 220.742105 26.0933525L220.48834 26.9275334C220.289943 26.8285557 220.065959 26.7492896 219.818066 26.6897353 219.569336 26.6293421 219.237135 26.5995649 218.819367 26.5995649 217.964958 26.5995649 217.316076 26.8751088 216.87482 27.4270353 216.432305 27.9785426 216.210838 28.7607182 216.210838 29.7739816 216.210838 30.2307051 216.260332 30.6505217 216.360999 31.0330118 216.459988 31.4159213 216.621475 31.7434705 216.84462 32.0160787 217.068184 32.2903643 217.356343 32.5034181 217.709096 32.6573369 218.06185 32.811675 218.490942 32.8880052 218.998051 32.8880052 219.415818 32.8880052 219.765636 32.8410328 220.048762 32.7466684 220.331887 32.652304 220.537834 32.5705216 220.667024 32.5004823L220.875908 33.3355019C220.696804 33.4344797 220.415776 33.5317798 220.033661 33.6257248 219.651967 33.7200891 219.250977 33.767481 218.834048 33.767481M225.442785 32.9028939C225.820286 32.9028939 226.15039 32.8907314 226.434354 32.8659869 226.71706 32.8412424 226.957821 32.8085295 227.157058 32.7691062L227.157058 30.0572844C227.047163 30.0077956 226.873512 29.9553709 226.634848 29.9008492 226.396184 29.8463277 226.068598 29.8186475 225.65125 29.8186475 225.413424 29.8186475 225.164693 29.8358427 224.906315 29.8710721 224.647936 29.9058821 224.408852 29.9801154 224.19116 30.0941914 223.972629 30.2086868 223.793107 30.3651219 223.654271 30.5634967 223.515434 30.7622909 223.446226 31.025253 223.446226 31.3536409 223.446226 31.6413474 223.493204 31.885017 223.587159 32.0833919 223.681534 32.2826055 223.815757 32.4411376 223.990247 32.5602464 224.163477 32.6797745 224.371941 32.7670091 224.615639 32.8215308 224.858917 32.8760524 225.134912 32.9028939 225.442785 32.9028939M225.352604 25.7207183C225.860133 25.7207183 226.289226 25.793274 226.641979 25.9371272 226.994732 26.0805609 227.280794 26.2797746 227.499744 26.532671 227.717856 26.7859869 227.876826 27.0871141 227.976654 27.4347942 228.074804 27.7824745 228.125557 28.1590931 228.125557 28.5671664L228.125557 33.4246239C228.025729 33.4548204 227.88144 33.4866946 227.693109 33.521924 227.504778 33.5567339 227.284989 33.5932215 227.037516 33.6330643 226.788785 33.6733264 226.51279 33.7052005 226.21079 33.7303643 225.906273 33.7546894 225.597141 33.7676907 225.278782 33.7676907 224.8715 33.7676907 224.496517 33.7228152 224.153411 33.6330643 223.810304 33.5437326 223.512917 33.4023958 223.259993 33.2090538 223.006228 33.0148728 222.807411 32.7670091 222.66396 32.4637851 222.519671 32.1605609 222.447527 31.7910721 222.447527 31.3536409 222.447527 30.9363408 222.526802 30.5785951 222.685352 30.2804036 222.845161 29.9822123 223.068306 29.7364456 223.356884 29.5431036 223.644623 29.3489227 223.98731 29.2075858 224.384525 29.1182542 224.78174 29.0289227 225.214188 28.9840472 225.68103 28.9840472 225.820286 28.9840472 225.967091 28.9915964 226.120609 29.0062752 226.274964 29.0217929 226.423868 29.0410852 226.568577 29.0666685 226.711607 29.090574 226.836182 29.1161573 226.940204 29.1404823 227.045066 29.1656461 227.116372 29.1878742 227.157058 29.2075858L227.157058 28.7307314C227.157058 28.4623171 227.136505 28.2018716 227.096658 27.9485557 227.056811 27.6952399 226.970405 27.4666685 226.836182 27.2632608 226.70196 27.0594338 226.51279 26.895869 226.270351 26.7713079 226.026653 26.6471665 225.704938 26.5850957 225.308982 26.5850957 224.741893 26.5850957 224.31951 26.624519 224.041838 26.7046239 223.763746 26.7838899 223.559896 26.8484771 223.430707 26.8979659L223.296484 26.0486868C223.465101 25.9694207 223.725576 25.8943487 224.079588 25.8251481 224.431083 25.7555282 224.856401 25.7207183 225.352604 25.7207183M235.621672 27.3008388C235.531911 27.2307995 235.420757 27.1561468 235.285697 27.0764614 235.152312 26.9976147 234.99586 26.9229619 234.817176 26.853342 234.638073 26.7841416 234.44387 26.7266841 234.235825 26.6818087 234.026942 26.6373526 233.80841 26.6151245 233.580232 26.6151245 233.102903 26.6151245 232.702753 26.6994234 232.380619 26.8684404 232.057646 27.0374574 231.796751 27.2630931 231.597934 27.5466055 231.399117 27.8292792 231.255247 28.1622805 231.165067 28.5447707 231.076145 28.9276802 231.031683 29.331979 231.031683 29.7589253 231.031683 30.7717693 231.285028 31.5501704 231.792137 32.0911927 232.298407 32.6330538 232.96952 32.9027261 233.803797 32.9027261 234.281125 32.9027261 234.665757 32.8809175 234.958949 32.8360419 235.251302 32.7915858 235.472768 32.7446134 235.621672 32.6942858L235.621672 27.3008388zM236.59101 33.3653211C236.301593 33.4642988 235.934997 33.5586632 235.48745 33.6479947 235.040321 33.7373263 234.474489 33.7822019 233.788696 33.7822019 233.221606 33.7822019 232.708205 33.6903539 232.246396 33.5070773 231.784587 33.3225426 231.386953 33.0574836 231.053913 32.7098034 230.721294 32.3617038 230.462076 31.9397903 230.279198 31.4432241 230.095062 30.9458192 230.004461 30.3846658 230.004461 29.7589253 230.004461 29.1734469 230.080382 28.6345217 230.233898 28.1421494 230.388254 27.6506159 230.615174 27.2257667 230.912561 26.8684404 231.210367 26.5102753 231.575703 26.2322149 232.007732 26.0334207 232.440179 25.8350458 232.933867 25.7360682 233.490891 25.7360682 233.997161 25.7360682 234.437159 25.8077851 234.809626 25.9516383 235.181674 26.0963303 235.452635 26.2322149 235.621672 26.3618087L235.621672 22.2181651 236.59101 22.039502 236.59101 33.3653211zM243.817254 29.1332267C243.79712 28.3284037 243.60837 27.7026632 243.250583 27.2555859 242.893635 26.8085085 242.386526 26.5849698 241.730514 26.5849698 241.382374 26.5849698 241.072404 26.6550092 240.799345 26.7938296 240.525447 26.9326501 240.287622 27.1188624 240.084191 27.3524665 239.880341 27.5864901 239.720952 27.8570013 239.607282 28.164 239.492773 28.4730957 239.425663 28.7951927 239.405948 29.1332267L243.817254 29.1332267zM238.348108 29.7442883C238.348108 29.0686395 238.44458 28.479806 238.637945 27.9786265 238.832148 27.4766081 239.085492 27.057211 239.398398 26.7191769 239.711304 26.3815622 240.069511 26.1303434 240.471759 25.9663591 240.874007 25.8032136 241.288838 25.7205924 241.715414 25.7205924 242.659165 25.7205924 243.41165 26.0288493 243.973287 26.6449436 244.534925 27.2606186 244.815534 28.2088755 244.815534 29.4909724 244.815534 29.5706579 244.813017 29.649924 244.807984 29.72919 244.803369 29.808456 244.7954 29.8831088 244.785753 29.9523093L239.376168 29.9523093C239.405948 30.8963723 239.63958 31.6219292 240.076641 32.1281416 240.513704 32.6351927 241.208724 32.8880892 242.162962 32.8880892 242.689785 32.8880892 243.106714 32.8386002 243.415006 32.7392031 243.722879 32.639806 243.946444 32.5550878 244.085699 32.4863067L244.263963 33.3204875C244.125127 33.400173 243.863812 33.4941179 243.481697 33.6031612 243.099164 33.7130432 242.649099 33.7675649 242.132762 33.7675649 241.457455 33.7675649 240.881557 33.6685871 240.404647 33.4693735 239.927739 33.2709987 239.535557 32.9920996 239.227684 32.6351927 238.919393 32.277447 238.694989 31.8525977 238.556572 31.3610642 238.416897 30.8691114 238.348108 30.3301862 238.348108 29.7442883zM246.619442 26.1683827C246.906761 26.0886972 247.282165 25.9993656 247.744393 25.8991297 248.206623 25.800152 248.805171 25.7506632 249.540458 25.7506632 250.513571 25.7506632 251.219078 26.0333369 251.65614 26.599523 251.705215 26.5609384 251.802526 26.4934154 251.946395 26.3986317 252.091104 26.3042674 252.272304 26.2082254 252.490416 26.1079895 252.708947 26.0090118 252.965229 25.924713 253.25842 25.8546736 253.550774 25.7854732 253.876683 25.7506632 254.233631 25.7506632 254.820853 25.7506632 255.295247 25.8378978 255.657647 26.0111088 256.020467 26.185578 256.300656 26.4284089 256.499893 26.7412791 256.697871 27.0541495 256.832513 27.4299292 256.902141 27.866941 256.97093 28.3039528 257.006164 28.7808073 257.006164 29.2966658L257.006164 33.6030354 256.037664 33.6030354 256.037664 29.6103749C256.037664 29.1033237 256.015434 28.6633761 255.970973 28.2913709 255.925673 27.9185269 255.83675 27.61027 255.702528 27.367439 255.568305 27.1237694 255.376619 26.9404928 255.128307 26.8159319 254.879996 26.6917903 254.557443 26.6297195 254.159808 26.6297195 253.862002 26.6297195 253.59104 26.6578192 253.347762 26.7119214 253.104484 26.766443 252.893084 26.8335465 252.7144 26.9128126 252.534877 26.9929175 252.388491 27.0713447 252.273983 27.1514495 252.160313 27.2307156 252.078521 27.2911088 252.028607 27.3296933 252.118368 27.5884613 252.184641 27.8795229 252.23036 28.2020393 252.273983 28.5245557 252.297052 28.8646867 252.297052 29.2228519L252.297052 33.6030354 251.328553 33.6030354 251.328553 29.6103749C251.328553 29.1033237 251.306322 28.6633761 251.261442 28.2913709 251.216981 27.9185269 251.124283 27.61027 250.985866 27.367439 250.845771 27.1237694 250.650311 26.9404928 250.396546 26.8159319 250.143201 26.6917903 249.808484 26.6297195 249.390716 26.6297195 248.923874 26.6297195 248.529176 26.6548833 248.206623 26.7043722 247.883649 26.7538611 247.676863 26.7987365 247.587941 26.8385793L247.587941 33.6030354 246.619442 33.6030354 246.619442 26.1683827zM261.580591 33.767481C261.256359 33.160194 260.943035 32.5281626 260.638936 31.8730642 260.334419 31.2183853 260.050455 30.554899 259.786205 29.8847024 259.522793 29.2153447 259.280353 28.5447287 259.060564 27.8745322 258.841194 27.2043355 258.653283 26.545882 258.495991 25.8991717L259.52447 25.8991717C259.633107 26.3764457 259.771943 26.8910459 259.941399 27.4425531 260.109177 27.9932214 260.300024 28.5623434 260.513522 29.1486605 260.726601 29.7345584 260.962748 30.3355544 261.220707 30.9520681 261.478666 31.5681625 261.760532 32.1741913 262.065051 32.7688965 262.286097 32.1553185 262.481559 31.5761311 262.653532 31.030076 262.823827 30.4836016 262.981538 29.9404824 263.126666 29.3994601 263.273472 28.8584378 263.413148 28.3048335 263.549048 27.7390669 263.684528 27.1728808 263.822946 26.5597222 263.964718 25.8991717L264.934056 25.8991717C264.609824 27.341059 264.245746 28.7435229 263.843498 30.1053054 263.439573 31.4675072 262.999155 32.7131167 262.521407 33.8421337 262.332237 34.2887917 262.137614 34.6733788 261.937958 34.9971534 261.739142 35.3192504 261.517255 35.5855675 261.273138 35.7944273 261.028601 36.0024482 260.744217 36.1567864 260.419567 36.2561835 260.095755 36.3551612 259.71364 36.4050695 259.274482 36.4050695 259.02533 36.4050695 258.798831 36.3752923 258.593722 36.3157378 258.389871 36.2561835 258.26236 36.211308 258.213284 36.1811114L258.40623 35.3767078C258.446077 35.4069043 258.558069 35.448844 258.742625 35.5033656 258.926761 35.5578873 259.118028 35.5855675 259.317264 35.5855675 259.595776 35.5855675 259.847862 35.5557903 260.071427 35.4962359 260.29583 35.4362621 260.497583 35.3339293 260.677106 35.1904954 260.856628 35.0466422 261.018535 34.8600105 261.161984 34.6318584 261.307113 34.4028676 261.445529 34.1151612 261.580591 33.767481M211.359409 18.7978139C210.764216 18.7978139 210.236554 18.7034495 209.779778 18.5143014 209.323422 18.3259921 208.942984 18.0550615 208.640146 17.7023486 208.336886 17.3496356 208.105353 16.9273027 207.947222 16.4357694 207.787413 15.9442359 207.708977 15.4002778 207.708977 14.8038952 207.708977 14.1987052 207.790769 13.6471979 207.955191 13.1502123 208.117936 12.6536462 208.354084 12.2262804 208.661537 11.8689541 208.970249 11.5116277 209.342716 11.2356645 209.779778 11.0414836 210.217259 10.8481416 210.708849 10.7508414 211.255386 10.7508414 211.673153 10.7508414 212.062399 10.7856514 212.425219 10.8556907 212.788459 10.9253106 213.068228 11.0142228 213.267465 11.1236854L213.0137 11.9582858C212.815723 11.8588886 212.59048 11.7796225 212.343846 11.7196488 212.095116 11.6600943 211.762915 11.6298978 211.344728 11.6298978 210.490319 11.6298978 209.842695 11.9058611 209.399761 12.4573682 208.958085 13.0080367 208.737037 13.7906317 208.737037 14.8038952 208.737037 15.2614574 208.786532 15.6808545 208.88636 16.0633447 208.985768 16.4462542 209.146835 16.7738034 209.3704 17.0468309 209.593545 17.3202779 209.881703 17.5333315 210.234457 17.6880891 210.586791 17.8420079 211.017141 17.9187576 211.523831 17.9187576 211.941598 17.9187576 212.291416 17.8713657 212.574541 17.7770013 212.857248 17.6830564 213.063195 17.6008545 213.192384 17.5312346L213.401688 18.3658348C213.222585 18.4648126 212.941976 18.5621127 212.559022 18.6560577 212.177746 18.7504221 211.777176 18.7978139 211.359409 18.7978139M220.494632 14.789384C220.494632 13.8260288 220.271487 13.0585321 219.823939 12.4877326 219.377649 11.9160944 218.771551 11.6300655 218.005644 11.6300655 217.241415 11.6300655 216.635317 11.9160944 216.188188 12.4877326 215.74064 13.0585321 215.517495 13.8260288 215.517495 14.789384 215.517495 15.7531586 215.74064 16.5181389 216.188188 17.0847444 216.635317 17.6505111 217.241415 17.9336042 218.005644 17.9336042 218.771551 17.9336042 219.377649 17.6505111 219.823939 17.0847444 220.271487 16.5181389 220.494632 15.7531586 220.494632 14.789384M221.522692 14.789384C221.522692 15.3954128 221.435867 15.9473395 221.262636 16.4434863 221.088147 16.9400525 220.845288 17.3623854 220.532382 17.7100655 220.219057 18.0577458 219.848686 18.3282569 219.421691 18.5220183 218.993857 18.7161992 218.52282 18.8126605 218.005644 18.8126605 217.489307 18.8126605 217.017431 18.7161992 216.590436 18.5220183 216.162602 18.3282569 215.79307 18.0577458 215.480164 17.7100655 215.167258 17.3623854 214.92398 16.9400525 214.74991 16.4434863 214.57584 15.9473395 214.489434 15.3954128 214.489434 14.789384 214.489434 14.1833551 214.57584 13.6322674 214.74991 13.1357012 214.92398 12.639135 215.167258 12.2134469 215.480164 11.8615728 215.79307 11.5088598 216.162602 11.2354128 216.590436 11.041232 217.017431 10.8483093 217.489307 10.7510091 218.005644 10.7510091 218.52282 10.7510091 218.993857 10.8483093 219.421691 11.041232 219.848686 11.2354128 220.219057 11.5088598 220.532382 11.8615728 220.845288 12.2134469 221.088147 12.639135 221.262636 13.1357012 221.435867 13.6322674 221.522692 14.1833551 221.522692 14.789384M228.423111 12.3303329C228.33335 12.2611324 228.221778 12.1864797 228.087135 12.1072136 227.953752 12.0279476 227.79688 11.9532949 227.618196 11.8836749 227.439512 11.8144745 227.245309 11.7574364 227.037264 11.7121416 226.82838 11.6676855 226.610269 11.6454574 226.381671 11.6454574 225.904762 11.6454574 225.504611 11.7297563 225.181639 11.8991927 224.859086 12.0677903 224.59861 12.293426 224.399374 12.5769384 224.200556 12.8596121 224.056686 13.1926134 223.966925 13.5746841 223.877164 13.9571743 223.833122 14.3623119 223.833122 14.7892582 223.833122 15.8025217 224.086467 16.5805033 224.593577 17.1215256 225.099847 17.6633867 225.770959 17.9334784 226.605235 17.9334784 227.082145 17.9334784 227.467195 17.9112504 227.760388 17.8663748 228.052741 17.8219187 228.274208 17.7749463 228.423111 17.7246187L228.423111 12.3303329zM229.39203 18.395654C229.103451 18.4946317 228.736017 18.5889961 228.288888 18.6787471 227.841341 18.7680787 227.275929 18.8125348 226.590136 18.8125348 226.023466 18.8125348 225.509225 18.7206868 225.047836 18.5365714 224.586027 18.3528754 224.188392 18.0873971 223.854934 17.7397169 223.522313 17.3920367 223.263516 16.9701232 223.080637 16.4735571 222.896501 15.9761521 222.805481 15.4149987 222.805481 14.7892582 222.805481 14.2037798 222.88224 13.6648545 223.035338 13.1724823 223.189693 12.6809488 223.416194 12.2560996 223.713581 11.8991927 224.011386 11.5406082 224.377143 11.2629673 224.809172 11.0637536 225.241619 10.8657982 225.736145 10.7664011 226.292329 10.7664011 226.7986 10.7664011 227.238598 10.838118 227.610646 10.9819712 227.983113 11.1262437 228.254075 11.2629673 228.423111 11.3921416L228.423111 7.24975622 229.39203 7.07067366 229.39203 18.395654zM236.605187 14.163979C236.585053 13.3587366 236.396723 12.7334155 236.038936 12.2854993 235.680729 11.8388414 235.174879 11.6157222 234.518867 11.6157222 234.170727 11.6157222 233.860337 11.6853421 233.587279 11.8241625 233.313381 11.962983 233.075556 12.1496147 232.870867 12.3827995 232.668274 12.6164037 232.508886 12.8869148 232.394796 13.1947523 232.280706 13.5025898 232.213596 13.8259449 232.193463 14.163979L236.605187 14.163979zM231.135621 14.7746212C231.135621 14.0989724 231.232513 13.5101389 231.425878 13.0081206 231.620081 12.506941 231.873425 12.0875439 232.186751 11.7495098 232.499657 11.4118951 232.856605 11.1610957 233.258853 10.996692 233.661521 10.8335465 234.075932 10.7509253 234.503348 10.7509253 235.447098 10.7509253 236.200423 11.0591822 236.76122 11.6744377 237.322439 12.2913709 237.603467 13.2396277 237.603467 14.5213053 237.603467 14.6009908 237.60095 14.6798375 237.596336 14.7595229 237.591722 14.838789 237.583333 14.913861 237.574106 14.9826422L232.164101 14.9826422C232.193463 15.9267052 232.426674 16.6522621 232.864574 17.1584745 233.302056 17.6655256 233.997077 17.9188414 234.951315 17.9188414 235.477299 17.9188414 235.894647 17.8693526 236.20252 17.769536 236.509973 17.6701389 236.733537 17.5858401 236.873631 17.5158008L237.052315 18.3508204C236.912221 18.4305059 236.652165 18.5244508 236.269211 18.6334941 235.887097 18.7433761 235.437871 18.7978978 234.921115 18.7978978 234.244549 18.7978978 233.669071 18.69892 233.192162 18.4997064 232.715672 18.3013316 232.322651 18.0228519 232.015198 17.6655256 231.706906 17.3077799 231.482922 16.8825111 231.344505 16.3909777 231.20483 15.8998637 231.135621 15.3605191 231.135621 14.7746212z"></path></g></svg>